<svg xmlns="http://www.w3.org/2000/svg" xmlns:xlink="http://www.w3.org/1999/xlink" width="595.276" height="595.28" viewBox="0 0 595.276 595.28">
<path fill-rule="nonzero" fill="#7a9abf" fill-opacity="1" d="M 478.808594 280.648438 L 472.519531 254.660156 L 494.472656 254.660156 Z M 297.480469 451.65625 L 271.488281 435.988281 L 297.480469 429.699219 Z M 100.484375 254.660156 L 116.148438 228.667969 L 122.441406 254.660156 Z M 306.992188 103.6875 C 312.246094 103.6875 316.507812 105.273438 316.507812 107.226562 C 316.507812 109.179688 312.246094 110.761719 306.992188 110.761719 C 301.738281 110.761719 297.480469 109.179688 297.480469 107.226562 C 297.480469 105.273438 301.738281 103.6875 306.992188 103.6875 M 306.992188 65.046875 C 312.246094 65.046875 316.507812 66.632812 316.507812 68.585938 C 316.507812 70.539062 312.246094 72.121094 306.992188 72.121094 C 301.738281 72.121094 297.480469 70.539062 297.480469 68.585938 C 297.480469 66.632812 301.738281 65.046875 306.992188 65.046875 M 481.414062 210.011719 L 481.320312 210.222656 C 466.246094 147.175781 419.835938 96.320312 359.464844 75 C 363.101562 80.953125 364.625 86.851562 363.976562 91.722656 C 363.34375 96.464844 360.886719 104.769531 352.3125 112.621094 C 408.828125 135.039062 448.8125 190.160156 448.8125 254.660156 C 448.8125 339.042969 380.40625 407.449219 296.023438 407.449219 C 211.640625 407.449219 143.234375 339.042969 143.234375 254.660156 C 143.234375 185.574219 189.09375 127.226562 252.027344 108.328125 C 253.75 109.398438 277.523438 123.625 310.40625 117.984375 C 344.5625 112.128906 351.394531 97.492188 352.367188 90.175781 C 353.34375 82.855469 341.09375 63.769531 309.433594 57.972656 C 282.71875 53.082031 259.53125 61.25 245.148438 71.0625 C 176.53125 90.035156 123.449219 146.390625 109.261719 216.867188 L 85.667969 254.660156 L 109.261719 292.449219 C 124.25 366.914062 182.644531 425.652344 256.921875 441.148438 L 297.480469 466.46875 L 339.742188 440.082031 C 409.617188 423.667969 464.636719 368.820312 481.292969 299.039062 L 481.414062 299.308594 L 509.289062 254.660156 Z M 481.414062 210.011719 "/>
<path fill-rule="nonzero" fill="#7a9abf" fill-opacity="1" d="M 330.894531 293.273438 L 332.898438 288.15625 L 338.015625 286.148438 L 343.53125 298.789062 Z M 278.476562 283.222656 L 276.324219 277.738281 L 299.402344 254.660156 L 217.511719 254.660156 L 270.839844 233.734375 L 276.324219 231.582031 L 299.402344 254.660156 L 299.402344 172.769531 L 320.328125 226.09375 L 322.480469 231.582031 L 299.402344 254.660156 L 381.292969 254.660156 L 327.964844 275.585938 L 322.480469 277.738281 L 299.402344 254.660156 L 299.402344 336.550781 Z M 255.273438 298.789062 L 260.789062 286.148438 L 265.90625 288.15625 L 267.914062 293.273438 Z M 255.273438 210.53125 L 267.914062 216.046875 L 265.90625 221.164062 L 260.789062 223.171875 Z M 343.53125 210.53125 L 338.015625 223.171875 L 332.898438 221.164062 L 330.894531 216.046875 Z M 359.707031 277.640625 L 418.269531 254.660156 L 359.707031 231.679688 C 357.714844 226.453125 355.128906 221.519531 351.917969 217.046875 L 363.457031 190.605469 L 337.015625 202.144531 C 332.542969 198.933594 327.609375 196.347656 322.382812 194.355469 L 299.402344 135.792969 L 276.421875 194.355469 C 271.199219 196.347656 266.265625 198.933594 261.789062 202.144531 L 235.347656 190.605469 L 246.886719 217.046875 C 243.675781 221.523438 241.09375 226.457031 239.101562 231.679688 L 180.535156 254.660156 L 239.101562 277.640625 C 241.09375 282.863281 243.675781 287.796875 246.886719 292.273438 L 235.347656 318.714844 L 261.789062 307.175781 C 266.265625 310.386719 271.199219 312.972656 276.421875 314.960938 L 299.402344 373.527344 L 322.382812 314.960938 C 327.609375 312.972656 332.539062 310.386719 337.015625 307.175781 L 363.457031 318.714844 L 351.917969 292.269531 C 355.128906 287.796875 357.714844 282.863281 359.707031 277.640625 "/>
<path fill-rule="nonzero" fill="#7a9abf" fill-opacity="1" d="M 46.339844 322.761719 C 37.46875 325.816406 32.96875 335.570312 35.976562 344.316406 C 38.984375 353.058594 48.464844 357.796875 57.339844 354.746094 C 66.210938 351.695312 70.648438 342.175781 67.640625 333.429688 C 64.609375 324.617188 55.214844 319.710938 46.339844 322.761719 M 59.992188 362.46875 C 47.226562 366.859375 33.777344 359.921875 29.1875 346.578125 C 24.597656 333.238281 30.9375 319.492188 43.707031 315.101562 C 56.539062 310.691406 69.796875 317.695312 74.386719 331.035156 C 78.972656 344.378906 72.761719 358.082031 59.992188 362.46875 "/>
<path fill-rule="nonzero" fill="#7a9abf" fill-opacity="1" d="M 105.289062 432.328125 C 110.21875 437.699219 115.335938 438.679688 120.0625 434.34375 C 124.632812 430.144531 123.992188 425.054688 119.0625 419.683594 L 111.484375 411.429688 L 97.710938 424.074219 Z M 101.527344 438.714844 C 101.019531 438.261719 100.519531 437.714844 100.015625 437.167969 L 92.4375 428.914062 L 81.949219 438.542969 L 76.5625 432.679688 L 111.367188 400.722656 L 124.332031 414.84375 C 132.503906 423.746094 132.878906 432.839844 125.320312 439.777344 C 119.753906 444.890625 113.449219 445.910156 107.414062 442.929688 L 102.949219 461.417969 L 96.828125 454.753906 Z M 101.527344 438.714844 "/>
<path fill-rule="nonzero" fill="#7a9abf" fill-opacity="1" d="M 177.027344 485.226562 C 173.210938 493.804688 177.296875 503.75 185.753906 507.503906 C 194.210938 511.261719 204.140625 507.539062 207.953125 498.957031 C 211.761719 490.378906 207.808594 480.640625 199.355469 476.886719 C 190.832031 473.101562 180.835938 476.644531 177.027344 485.226562 M 215.421875 502.277344 C 209.941406 514.625 195.6875 519.75 182.785156 514.019531 C 169.882812 508.289062 164.132812 494.277344 169.617188 481.933594 C 175.128906 469.523438 189.296875 464.585938 202.199219 470.3125 C 215.101562 476.042969 220.90625 489.929688 215.421875 502.277344 "/>
<path fill-rule="nonzero" fill="#7a9abf" fill-opacity="1" d="M 286.804688 510.164062 L 298.957031 510.351562 C 304.019531 510.429688 307.09375 508.113281 307.15625 504.128906 C 307.214844 500.144531 304.210938 497.941406 299.148438 497.863281 L 286.996094 497.675781 Z M 286.492188 530.757812 L 298.644531 530.941406 C 304.851562 531.035156 308.601562 528.664062 308.671875 524.210938 C 308.734375 520.023438 305.0625 517.46875 298.847656 517.375 L 286.699219 517.1875 Z M 299.660156 490.78125 C 309.449219 490.929688 315.457031 495.476562 315.34375 502.835938 C 315.261719 508.167969 312.027344 512.101562 306.878906 513.242188 C 313.210938 514.417969 316.921875 519 316.824219 525.34375 C 316.703125 533.445312 310.078125 538.207031 299.410156 538.042969 L 278.414062 537.722656 L 279.136719 490.464844 Z M 299.660156 490.78125 "/>
<path fill-rule="nonzero" fill="#7a9abf" fill-opacity="1" d="M 383.925781 500.429688 C 387.59375 509.074219 397.644531 512.878906 406.164062 509.261719 C 414.683594 505.648438 418.742188 495.855469 415.074219 487.210938 C 411.410156 478.566406 401.59375 474.808594 393.078125 478.421875 C 384.496094 482.0625 380.257812 491.789062 383.925781 500.429688 M 422.597656 484.019531 C 427.878906 496.453125 421.894531 510.367188 408.898438 515.878906 C 395.902344 521.394531 381.738281 516.03125 376.460938 503.59375 C 371.15625 491.097656 377.222656 477.371094 390.21875 471.855469 C 403.210938 466.34375 417.324219 471.582031 422.597656 484.019531 "/>
<path fill-rule="nonzero" fill="#7a9abf" fill-opacity="1" d="M 489.089844 434.011719 C 494.105469 428.71875 494.730469 423.542969 490.074219 419.132812 C 485.5625 414.855469 480.53125 415.851562 475.511719 421.144531 L 467.800781 429.28125 L 481.375 442.148438 Z M 495.71875 437.324219 C 495.304688 437.859375 494.792969 438.398438 494.28125 438.9375 L 486.570312 447.070312 L 496.910156 456.875 L 491.429688 462.65625 L 457.125 430.136719 L 470.316406 416.222656 C 478.632812 407.449219 487.679688 406.441406 495.128906 413.503906 C 500.617188 418.703125 502.074219 424.921875 499.519531 431.152344 L 518.28125 434.328125 L 512.054688 440.898438 Z M 495.71875 437.324219 "/>
<path fill-rule="nonzero" fill="#7a9abf" fill-opacity="1" d="M 536.902344 358.792969 C 545.722656 361.996094 555.355469 357.230469 558.507812 348.535156 C 561.664062 339.835938 557.261719 330.195312 548.433594 326.992188 C 539.613281 323.792969 530.179688 328.414062 527.023438 337.109375 C 523.84375 345.871094 528.078125 355.59375 536.902344 358.792969 M 551.222656 319.3125 C 563.917969 323.917969 570.027344 337.769531 565.214844 351.035156 C 560.402344 364.304688 546.832031 371.019531 534.136719 366.414062 C 521.378906 361.785156 515.457031 348 520.273438 334.734375 C 525.082031 321.46875 538.527344 314.707031 551.222656 319.3125 "/>
</svg>
